<svg height="512pt" viewBox="0 0 512 512" width="512pt" xmlns="http://www.w3.org/2000/svg"><path d="m512 256c0 141.386719-114.613281 256-256 256-33.28125 0-65.066406-6.34375-94.230469-17.898438-3.382812-1.339843-6.726562-2.75-10.039062-4.234374-23.511719-10.488282-45.160157-24.4375-64.28125-41.175782-9.082031-7.953125-17.597657-16.542968-25.476563-25.683594-4.828125-5.601562-9.414062-11.421874-13.75-17.429687-1.015625-1.402344-2.007812-2.8125-2.988281-4.234375-28.527344-41.292969-45.234375-91.363281-45.234375-145.34375 0-141.386719 114.613281-256 256-256s256 114.613281 256 256zm0 0" fill="#9fc2cc"/><path d="m382.109375 449.578125v29.246094c-35.234375 19.988281-75.683594 31.859375-118.804687 33.070312-2.433594.074219-4.871094.105469-7.316407.105469-2.445312 0-4.878906-.03125-7.3125-.105469-24.417969-.679687-47.972656-4.785156-70.21875-11.847656-17.03125-5.402344-33.300781-12.550781-48.585937-21.222656v-29.246094c0-.691406.007812-1.378906.03125-2.070313.09375-4.628906.523437-9.171874 1.265625-13.601562 7.050781-42.582031 42.378906-75.609375 86.054687-79.140625 2.570313-.210937 5.164063-.316406 7.785156-.316406h61.953126c7.324218 0 14.449218.816406 21.292968 2.382812 37.304688 8.539063 66.246094 38.984375 72.558594 77.0625.742188 4.449219 1.171875 8.996094 1.273438 13.625.011718.679688.023437 1.367188.023437 2.058594zm0 0" fill="#e8c018"/><path d="m382.121094 449.578125v29.246094c-15.289063 8.671875-31.546875 15.820312-48.589844 21.222656-8.296875 2.632813-16.769531 4.859375-25.410156 6.632813-14.777344 3.0625-30.023438 4.851562-45.613282 5.238281-2.160156.050781-4.335937.082031-6.507812.082031-27.03125 0-53.070312-4.191406-77.53125-11.953125v-50.46875c0-6.738281.699219-13.324219 2.039062-19.664063 2.714844-12.957031 8.074219-24.933593 15.484376-35.359374 3.195312-4.503907 6.78125-8.714844 10.699218-12.59375 17.1875-17.007813 40.835938-27.511719 66.925782-27.511719h13.355468c7.6875 0 15.160156.910156 22.316406 2.632812 8.601563 2.058594 16.738282 5.300781 24.242188 9.519531 29.007812 16.289063 48.589844 47.34375 48.589844 82.976563zm0 0" fill="#ffd833"/><path d="m382.085938 447.519531-35.105469-24.398437h-181.992188l-35.085937 24.386718c.09375-4.628906.523437-9.171874 1.265625-13.601562l30.550781-21.234375h188.542969l30.550781 21.222656c.742188 4.449219 1.171875 8.996094 1.273438 13.625zm0 0" fill="#1da2dd"/><path d="m185.898438 412.671875c-1.433594 3.386719-2.675782 6.875-3.6875 10.449219h-17.222657l-35.085937 24.386718c.09375-4.628906.523437-9.171874 1.265625-13.601562l30.550781-21.234375zm0 0" fill="#0c85a5"/><path d="m296.914062 304.871094v50.222656c0 18.386719-12.121093 33.925781-28.820312 39.085938-3.824219 1.1875-7.894531 1.828124-12.109375 1.828124-22.601563 0-40.917969-18.316406-40.917969-40.914062v-50.222656zm0 0" fill="#e8c018"/><path d="m296.914062 351.910156v3.183594c0 18.386719-12.121093 33.925781-28.820312 39.085938-15.066406-4.628907-26.394531-17.730469-28.488281-33.757813 2.734375.167969 5.484375.25 8.246093.25 7.742188 0 15.332032-.613281 22.726563-1.828125 9.109375-1.464844 17.910156-3.808594 26.335937-6.933594zm0 0" fill="#ffd833"/><path d="m263.304688 321.066406v190.828125c-2.433594.074219-4.871094.105469-7.316407.105469-2.445312 0-4.878906-.03125-7.3125-.105469v-190.828125zm0 0" fill="#e8c018"/><path d="m270.921875 360.105469c0 8.246093-6.683594 14.929687-14.925781 14.929687-8.246094 0-14.929688-6.683594-14.929688-14.929687 0-8.242188 6.683594-14.925781 14.929688-14.925781 8.242187 0 14.925781 6.683593 14.925781 14.925781zm0 0" fill="#1da2dd"/><path d="m261.589844 398.609375h-11.191406c-3.523438 0-6.269532-3.058594-5.886719-6.5625l2.820312-25.921875h17.324219l2.820312 25.921875c.382813 3.503906-2.359374 6.5625-5.886718 6.5625zm0 0" fill="#1da2dd"/><path d="m162.882812 249.535156c0 15.714844-11.480468 28.742188-26.511718 31.160156-1.640625.265626-3.332032.40625-5.054688.40625-17.4375 0-31.566406-14.128906-31.566406-31.566406s14.128906-31.5625 31.566406-31.5625c1.722656 0 3.414063.136719 5.054688.402344 15.03125 2.417969 26.511718 15.449219 26.511718 31.160156zm0 0" fill="#f6ba97"/><path d="m162.882812 249.535156c0 15.714844-11.480468 28.742188-26.511718 31.160156-2.730469-9.925781-4.1875-20.375-4.1875-31.160156s1.457031-21.230468 4.1875-31.160156c15.03125 2.417969 26.511718 15.449219 26.511718 31.160156zm0 0" fill="#eaa27f"/><path d="m142.597656 249.535156c0 6.230469-5.050781 11.28125-11.28125 11.28125-6.230468 0-11.28125-5.050781-11.28125-11.28125 0-6.230468 5.050782-11.28125 11.28125-11.28125 6.230469 0 11.28125 5.050782 11.28125 11.28125zm0 0" fill="#eaa27f"/><path d="m349.097656 249.535156c0 15.714844 11.480469 28.742188 26.507813 31.160156 1.644531.265626 3.335937.40625 5.058593.40625 17.4375 0 31.566407-14.128906 31.566407-31.566406s-14.128907-31.5625-31.566407-31.5625c-1.722656 0-3.414062.136719-5.058593.402344-15.027344 2.417969-26.507813 15.449219-26.507813 31.160156zm0 0" fill="#f6ba97"/><path d="m349.097656 249.535156c0 15.714844 11.480469 28.742188 26.507813 31.160156 2.730469-9.925781 4.191406-20.375 4.191406-31.160156s-1.457031-21.230468-4.191406-31.160156c-15.027344 2.417969-26.507813 15.449219-26.507813 31.160156zm0 0" fill="#eaa27f"/><path d="m373.433594 188.039062v44.722657c0 58.441406-42.695313 106.925781-98.597656 115.921875-.1875.03125-.386719.0625-.574219.09375-5.945313.949218-12.046875 1.421875-18.273438 1.421875-64.859375 0-117.4375-52.578125-117.4375-117.4375v-44.722657c0-13.65625 2.328125-26.777343 6.632813-38.972656 16.0625-45.703125 59.613281-78.472656 110.804687-78.472656h.007813c6.21875 0 12.332031.480469 18.285156 1.421875 56.175781 8.777344 99.152344 57.386719 99.152344 116.023437zm0 0" fill="#eaa27f"/><path d="m391.945312 249.535156c0 6.230469-5.050781 11.28125-11.28125 11.28125-6.230468 0-11.28125-5.050781-11.28125-11.28125 0-6.230468 5.050782-11.28125 11.28125-11.28125 6.230469 0 11.28125 5.050782 11.28125 11.28125zm0 0" fill="#eaa27f"/><path d="m373.382812 236.167969c-1.617187 56.90625-43.726562 103.695312-98.542968 112.515625-.1875.03125-.386719.0625-.574219.09375-38.285156-5.976563-70.425781-30.460938-87.007813-64.011719 5.753907 2.070313 11.828126 2.675781 17.710938 1.945313 13.246094-1.621094 25.535156-10.011719 31.179688-23.773438 3.632812-8.882812 11.742187-13.3125 19.839843-13.3125 8.097657 0 16.207031 4.429688 19.84375 13.3125 10.011719 24.429688 40.992188 31.921875 61.054688 14.742188l19.769531-16.914063c7.75-6.636719 13.476562-15.164063 16.726562-24.597656zm0 0" fill="#f6ba97"/><path d="m255.988281 295.828125c-9.835937 0-19.667969-2.464844-28.632812-7.390625-2.527344-1.390625-3.449219-4.566406-2.0625-7.097656 1.390625-2.527344 4.570312-3.449219 7.097656-2.0625 14.777344 8.125 32.421875 8.125 47.195313 0 2.527343-1.386719 5.703124-.464844 7.09375 2.0625 1.390624 2.53125.46875 5.707031-2.058594 7.097656-8.964844 4.925781-18.800782 7.390625-28.632813 7.390625zm0 0" fill="#eaa27f"/><path d="m269.3125 264.691406h-26.644531c-3.175781 0-5.75-2.570312-5.75-5.746094 0-3.175781 2.574219-5.746093 5.75-5.746093h26.644531c3.171875 0 5.746094 2.570312 5.746094 5.746093 0 3.175782-2.574219 5.746094-5.746094 5.746094zm0 0" fill="#d39272"/><path d="m230.980469 225.921875c0 7.359375-5.964844 13.324219-13.324219 13.324219-7.355469 0-13.320312-5.964844-13.320312-13.324219 0-7.355469 5.964843-13.320313 13.320312-13.320313 7.359375 0 13.324219 5.964844 13.324219 13.320313zm0 0" fill="#2f373b"/><path d="m307.648438 225.921875c0 7.359375-5.964844 13.324219-13.324219 13.324219-7.355469 0-13.320313-5.964844-13.320313-13.324219 0-7.355469 5.964844-13.320313 13.320313-13.320313 7.359375 0 13.324219 5.964844 13.324219 13.320313zm0 0" fill="#2f373b"/><path d="m228.261719 223.574219c0 3.152343-2.554688 5.707031-5.707031 5.707031-3.152344 0-5.707032-2.554688-5.707032-5.707031 0-3.152344 2.554688-5.710938 5.707032-5.710938 3.152343 0 5.707031 2.558594 5.707031 5.710938zm0 0" fill="#fff"/><path d="m305.585938 223.574219c0 3.152343-2.554688 5.707031-5.707032 5.707031s-5.710937-2.554688-5.710937-5.707031c0-3.152344 2.558593-5.710938 5.710937-5.710938s5.707032 2.558594 5.707032 5.710938zm0 0" fill="#fff"/><path d="m397.25 158.992188c3.519531 11.269531-4.714844 13.65625-15.960938 13.65625-11.148437 0 2.542969 38.847656-7.851562 44.4375-13.53125-41.785157-43.28125-64.511719-69.644531-76.789063-26.371094-12.277344-49.359375-14.105469-49.359375-14.105469 16.195312 16.195313 10.824218 35.503906 10.824218 35.503906-17.1875-11.210937-32.902343-16.402343-45.609374-18.578124-19.246094-3.289063-31.566407.316406-31.566407.316406l8.359375 19.851562c-33.4375 0-60.070312 39.414063-60.070312 39.414063-11.144532-11.144531 7.839844-24.613281-5.683594-30.050781-20.234375-8.132813-12.613281-44.890626-12.613281-44.890626l16.71875 8.359376s-7.835938-47.542969 17.761719-73.140626l18.808593 9.402344s9.402344-55.378906 75.234375-60.605468v33.4375s33.433594-33.4375 109.710938-16.71875l-26.121094 30.304687s54.335938 4.179687 72.097656 62.691406h-26.121094s13.832032 14.273438 21.085938 37.503907zm0 0" fill="#f71c55"/><path d="m374.199219 217.851562 7.089843-2.300781c4.484376 0 8.121094-3.636719 8.121094-8.121093v-26.660157c0-4.484375-3.636718-8.121093-8.121094-8.121093h-4.789062zm0 0" fill="#ffd833"/><path d="m356.308594 28.492188c-66.871094 0-82.023438 27.847656-82.023438 27.847656l-27.6875-11.128906s33.433594-33.4375 109.710938-16.71875zm0 0" fill="#dd104f"/><path d="m219.648438 143.117188c-19.246094-3.289063-31.566407.316406-31.566407.316406l8.359375 19.851562c-33.4375 0-60.070312 39.414063-60.070312 39.414063-31.464844-31.472657-18.296875-74.941407-18.296875-74.941407l16.71875 8.359376s-7.835938-47.542969 17.761719-73.140626l18.808593 9.402344s9.402344-55.378906 75.234375-60.605468c-34.484375 22.988281-34.484375 66.875-34.484375 66.875l39.707031-10.449219s-79.285156 44.796875-32.171874 74.917969zm0 0" fill="#dd104f"/><path d="m130.6875 215.550781h10.011719l-5.222657-42.902343h-4.789062c-4.484375 0-8.121094 3.636718-8.121094 8.121093v26.660157c0 4.484374 3.636719 8.121093 8.121094 8.121093zm0 0" fill="#e8c018"/><path d="m376.496094 172.648438v38.035156c0 16.582031-7.25 32.328125-19.839844 43.113281l-19.769531 16.914063c-20.0625 17.179687-51.042969 9.6875-61.054688-14.742188-3.636719-8.882812-11.746093-13.3125-19.84375-13.3125-8.097656 0-16.207031 4.429688-19.839843 13.3125-5.644532 13.761719-17.933594 22.152344-31.179688 23.769531-10.273438 1.277344-21.117188-1.523437-29.886719-9.027343l-19.757812-16.914063c-12.601563-10.785156-19.851563-26.53125-19.851563-43.113281v-38.035156c0-8.128907 4.941406-15.453126 12.472656-18.503907l32.59375-13.167969c3.246094-1.316406 6.558594-2.464843 9.914063-3.4375 9.550781-2.800781 19.46875-4.21875 29.457031-4.21875h72.160156c13.488282 0 26.863282 2.601563 39.371094 7.65625l32.582032 13.167969c7.542968 3.050781 12.472656 10.375 12.472656 18.503907zm0 0" fill="#2f373b"/><path d="m204.96875 279.738281c-10.273438 1.277344-21.117188-1.523437-29.886719-9.027343l-19.757812-16.914063c-12.601563-10.785156-19.851563-26.53125-19.851563-43.113281v-38.035156c0-8.128907 4.941406-15.453126 12.472656-18.503907l32.59375-13.167969c3.246094-1.316406 6.558594-2.464843 9.914063-3.4375-22.589844 96.601563-4.660156 142.117188 14.515625 142.199219zm0 0" fill="#151a1c"/><path d="m359.132812 180.578125v30.113281c0 11.507813-5.027343 22.4375-13.761718 29.917969l-19.769532 16.917969c-4.976562 4.261718-10.273437 5.148437-13.824218 5.148437-.597656 0-1.179688-.019531-1.765625-.070312-3.972657-.324219-7.679688-1.714844-10.792969-3.960938-1.933594-1.371093-3.628906-3.074219-5.015625-5.046875-.910156-1.296875-1.695313-2.707031-2.3125-4.210937-1.222656-2.96875-2.765625-5.738281-4.597656-8.246094-4.597657-6.300781-10.980469-11.03125-18.285157-13.613281-3.53125-1.253906-7.269531-2.007813-11.136718-2.183594-.617188-.042969-1.246094-.054688-1.882813-.054688-1.890625 0-3.761719.136719-5.589843.410157-13.476563 1.933593-25.035157 10.804687-30.320313 23.6875-3.3125 8.066406-11.121094 13.289062-19.875 13.289062-.011719 0-.011719 0-.011719 0-2.726562 0-6.46875-.519531-10.3125-2.695312-1.160156-.648438-2.339844-1.460938-3.5-2.453125l-19.769531-16.917969c-2.6875-2.300781-5.027344-4.921875-6.96875-7.785156-4.390625-6.46875-6.804687-14.167969-6.804687-22.140625v-30.105469c0-5.859375 3.554687-11.117187 8.964843-13.300781l25.234375-10.199219c2.8125-1.136719 5.65625-2.128906 8.539063-2.957031 4.441406-1.285156 8.964843-2.214844 13.542969-2.777344 3.570312-.449219 7.167968-.660156 10.78125-.660156h72.171874c3.488282 0 6.980469.210937 10.425782.617187 7.691406.929688 15.238281 2.863281 22.4375 5.777344l.519531.210937 10.566406 4.273438 4.972657 2.003906 9.175781 3.710938c.5.199218.980469.429687 1.441406.679687 4.605469 2.476563 7.523437 7.292969 7.523437 12.621094zm0 0" fill="#1da2dd"/><path d="m265.257812 161.699219c-17.1875-11.214844-32.902343-16.40625-45.609374-18.578125-.386719-.0625-.773438-.125-1.140626-.179688-18.585937-2.96875-30.425781.492188-30.425781.492188l8.359375 19.851562c-15.25 0-29.085937 8.199219-39.625 17.117188-14.027344 11.871094-35.773437 4.777344-39.648437-13.1875-.027344-.117188-.050781-.238282-.074219-.355469l62.628906-51.636719 25.066406 3.675782 49.644532 7.292968c16.195312 16.195313 10.824218 35.507813 10.824218 35.507813zm0 0" fill="#f71c55"/><path d="m219.648438 143.121094c-.386719-.0625-.773438-.125-1.140626-.179688-18.585937-2.96875-30.425781.492188-30.425781.492188l8.359375 19.851562c-15.25 0-29.085937 8.199219-39.625 17.117188-14.027344 11.871094-35.773437 4.777344-39.648437-13.1875-.027344-.117188-.050781-.238282-.074219-.355469l62.628906-51.636719 25.066406 3.675782c-.742187 8.371093 3.167969 16.75 14.859376 24.222656zm0 0" fill="#dd104f"/><path d="m340.992188 163.566406-41.773438 95.078125c-1.933594-1.371093-3.628906-3.074219-5.015625-5.046875-.910156-1.296875-1.695313-2.707031-2.3125-4.210937-1.222656-2.96875-2.765625-5.738281-4.597656-8.246094 10.804687-23.875 27.410156-60.5 38.160156-83.851563l10.566406 4.273438zm0 0" fill="#0c85a5"/><path d="m237.914062 150.683594-48.035156 109.296875c-1.160156-.648438-2.339844-1.460938-3.5-2.453125l-19.769531-16.917969c-2.6875-2.300781-5.027344-4.921875-6.96875-7.785156l22.035156-49.96875c.460938-.019531 7.722657-15.628907 13.898438-28.734375 4.441406-1.285156 8.964843-2.214844 13.542969-2.777344 3.570312-.449219 7.167968-.660156 10.78125-.660156zm0 0" fill="#0c85a5"/><path d="m302.496094 151.300781-33.488282 76.226563c-3.53125-1.253906-7.269531-2.007813-11.136718-2.183594-.617188-.042969-1.246094-.054688-1.882813-.054688-1.890625 0-3.761719.136719-5.589843.410157 11.410156-25.183594 25.675781-56.570313 34.210937-75.015625h7.460937c3.488282 0 6.980469.210937 10.425782.617187zm0 0" fill="#0c85a5"/><path d="m351.609375 167.957031-41.597656 94.648438c-6.425781-.523438-12.183594-3.847657-15.808594-9.007813 9.171875-20.304687 28.847656-63.769531 41.816406-92.035156l14.148438 5.714844c.5.199218.980469.429687 1.441406.679687zm0 0" fill="#0c85a5"/><path d="m169.972656 164.257812c0 1.945313-.070312 3.898438-.230468 5.863282-2.347657 28.710937-4.523438 57.414062-6.476563 86.160156-.1875 2.75-.367187 5.507812-.554687 8.265625-1.378907 20.636719-2.664063 41.273437-3.835938 61.929687-.875 15.339844-1.703125 30.679688-2.453125 46.019532-.199219 4.085937-.398437 8.171875-.597656 12.257812-.59375 12.609375-1.160157 25.222656-1.671875 37.84375-.9375 22.425782-1.742188 44.847656-2.421875 67.269532-23.511719-10.488282-45.160157-24.4375-64.28125-41.175782-.355469-.316406-.722657-.628906-1.078125-.964844-8.671875-7.667968-16.832032-15.945312-24.398438-24.71875-.753906-.867187-1.492187-1.746093-2.226562-2.636718-4.023438-4.785156-7.867188-9.714844-11.523438-14.792969-1.015625-1.402344-2.007812-2.8125-2.988281-4.234375-.480469-10.71875-.992187-21.441406-1.527344-32.160156-1.097656-22.003906-2.320312-44.011719-3.65625-66.007813-.019531-.386719-.042969-.78125-.074219-1.167969-1.722656-28.621093-3.667968-57.21875-5.820312-85.808593-.742188-9.851563-1.492188-19.714844-2.277344-29.582031-.4375-5.496094-.867187-11-1.335937-16.496094-3.332031-40.730469 28.777343-75.609375 69.609375-75.609375 24.808594 0 46.394531 12.871093 58.753906 32.121093 7.023438 10.886719 11.066406 23.820313 11.066406 37.625zm0 0" fill="#673389"/><path d="m163.265625 256.28125c-.1875 2.75-.367187 5.507812-.554687 8.265625-1.378907 20.636719-2.664063 41.273437-3.835938 61.929687l-115.167969 42.707032c-1.097656-22.003906-2.320312-44.011719-3.65625-66.007813-.019531-.386719-.042969-.78125-.074219-1.167969zm0 0" fill="#512375"/><path d="m155.824219 384.753906c-.59375 12.609375-1.160157 25.222656-1.671875 37.84375l-67.78125 25.128906c-8.671875-7.667968-16.832032-15.945312-24.398438-24.71875-.753906-.867187-1.492187-1.746093-2.226562-2.636718zm0 0" fill="#512375"/><path d="m83.242188 291.808594v29.75c0 11.199218-6.917969 20.792968-16.71875 24.71875-3.070313 1.246094-6.414063 1.925781-9.925782 1.925781-14.714844 0-26.644531-11.933594-26.644531-26.644531v-29.75c0-14.710938 11.929687-26.644532 26.644531-26.644532 3.511719 0 6.855469.679688 9.925782 1.910157 3.363281 1.351562 6.394531 3.367187 8.914062 5.894531 4.816406 4.828125 7.804688 11.484375 7.804688 18.839844zm0 0" fill="#eaa27f"/><path d="m83.242188 291.808594v29.75c0 11.199218-6.917969 20.792968-16.71875 24.71875-9.800782-3.925782-16.71875-13.519532-16.71875-24.71875v-29.75c0-11.203125 6.917968-20.792969 16.71875-24.734375 3.363281 1.351562 6.394531 3.367187 8.914062 5.894531 4.816406 4.828125 7.804688 11.484375 7.804688 18.839844zm0 0" fill="#f6ba97"/><g fill="#f2efea"><path d="m443.699219 295.65625c0 6.058594-4.910157 10.96875-10.96875 10.96875-6.058594 0-10.972657-4.910156-10.972657-10.96875s4.914063-10.96875 10.972657-10.96875c6.058593 0 10.96875 4.910156 10.96875 10.96875zm0 0"/><path d="m486.015625 209.457031c0 6.058594-4.910156 10.96875-10.96875 10.96875-6.0625 0-10.972656-4.910156-10.972656-10.96875 0-6.058593 4.910156-10.972656 10.972656-10.972656 6.058594 0 10.96875 4.914063 10.96875 10.972656zm0 0"/><path d="m427.824219 156.421875c0 6.058594-4.910157 10.96875-10.96875 10.96875-6.0625 0-10.972657-4.910156-10.972657-10.96875s4.910157-10.972656 10.972657-10.972656c6.058593 0 10.96875 4.914062 10.96875 10.972656zm0 0"/><path d="m382.660156 346.21875c0 6.058594-4.914062 10.972656-10.972656 10.972656s-10.96875-4.914062-10.96875-10.972656 4.910156-10.96875 10.96875-10.96875 10.972656 4.910156 10.972656 10.96875zm0 0"/><path d="m469.136719 379.683594c0 6.058594-4.914063 10.96875-10.972657 10.96875-6.058593 0-10.96875-4.910156-10.96875-10.96875s4.910157-10.972656 10.96875-10.972656c6.058594 0 10.972657 4.914062 10.972657 10.972656zm0 0"/><path d="m26.804688 248.636719c0 6.058593-4.910157 10.972656-10.96875 10.972656-6.058594 0-10.972657-4.914063-10.972657-10.972656 0-6.058594 4.914063-10.96875 10.972657-10.96875 6.058593 0 10.96875 4.910156 10.96875 10.96875zm0 0"/><path d="m419.550781 435.769531c0 6.058594-4.910156 10.972657-10.96875 10.972657-6.058593 0-10.972656-4.914063-10.972656-10.972657 0-6.058593 4.914063-10.96875 10.972656-10.96875 6.058594 0 10.96875 4.910157 10.96875 10.96875zm0 0"/><path d="m138.757812 67.636719c0 6.058593-4.910156 10.96875-10.96875 10.96875-6.058593 0-10.96875-4.910157-10.96875-10.96875 0-6.058594 4.910157-10.972657 10.96875-10.972657 6.058594 0 10.96875 4.914063 10.96875 10.972657zm0 0"/></g></svg>