<svg xmlns="http://www.w3.org/2000/svg" width="414" height="78.732" viewBox="0 0 414 78.732">
  <g id="Groupe_7" data-name="Groupe 7" transform="translate(-473 -242)">
    <text id="SnowTricks" transform="translate(555 302)" fill="#fff" font-size="60" font-family="Raleway-ExtraBold, Raleway" font-weight="800"><tspan x="0" y="0">SnowTricks</tspan></text>
    <g id="favicon" transform="translate(432.326 242)">
      <circle id="Ellipse_1" data-name="Ellipse 1" cx="4.326" cy="4.326" r="4.326" transform="translate(58.124 0)" fill="#f7cf2b"/>
      <path id="Tracé_1" data-name="Tracé 1" d="M157.607,4.326A4.327,4.327,0,0,1,160.2.36a4.326,4.326,0,1,0,0,7.933A4.327,4.327,0,0,1,157.607,4.326Z" transform="translate(-96.026 0)" fill="#e0bc24"/>
      <path id="Tracé_2" data-name="Tracé 2" d="M106.709,92.016a4.227,4.227,0,0,1-4.226,4.3H89.61a5.42,5.42,0,0,0-5.418,5.464l.066,8.11L95.664,121.3a3.861,3.861,0,0,1,0,5.46l-8.4,8.4a4.7,4.7,0,0,1-.016,6.631l-.614.616-3.308-3.356-.024.024-5.4-5.524,9.567-9.521-6.249-6.249a3.124,3.124,0,0,0-1.926-.8,1.452,1.452,0,0,0-1.027,2.478l1.839,1.839a3.861,3.861,0,0,1,0,5.46l-8.413,8.382a4.7,4.7,0,0,1,0,6.648l-.614.616-3.308-3.356-.024.024-5.4-5.524,9.565-9.521-8.672-8.672V101.738a5.42,5.42,0,0,0-5.42-5.418H45a4.288,4.288,0,0,1-4.32-4.153,4.229,4.229,0,0,1,4.224-4.3h57.484A4.289,4.289,0,0,1,106.709,92.016Z" transform="translate(-0.004 -74.356)" fill="#eb9500"/>
      <g id="Groupe_1" data-name="Groupe 1" transform="translate(40.674 16.437)">
        <path id="Tracé_3" data-name="Tracé 3" d="M63.237,117.835a5.42,5.42,0,0,0-5.42-5.418H44.995a4.288,4.288,0,0,1-4.32-4.153,4.185,4.185,0,0,1,.206-1.374,4.333,4.333,0,0,0,4.114,2.935H57.817a5.42,5.42,0,0,1,5.42,5.418v2.592Z" transform="translate(-40.674 -106.89)" fill="#d37e02"/>
        <path id="Tracé_4" data-name="Tracé 4" d="M346.163,108.176a4.226,4.226,0,0,1-4.226,4.3H329.064a5.416,5.416,0,0,0-5.4,4.989l-.018-2.117a5.42,5.42,0,0,1,5.418-5.464h12.873a4.224,4.224,0,0,0,4.02-2.924A4.1,4.1,0,0,1,346.163,108.176Z" transform="translate(-280.132 -106.953)" fill="#d37e02"/>
      </g>
      <path id="Tracé_5" data-name="Tracé 5" d="M120.007,342.1a7.919,7.919,0,0,1-10.072,7.62l-48.011-13.6a7.914,7.914,0,0,1,4.315-15.228l4.745,1.344,9.933,2.815,15.628,4.425,5.021,1.422,12.685,3.594A7.918,7.918,0,0,1,120.007,342.1Z" transform="translate(-13.111 -271.292)" fill="#0387d8"/>
      <path id="Tracé_6" data-name="Tracé 6" d="M181.28,348.4l-6.53-6.692-9.027,6.692-13.2-17.105,9.933,2.815,15.628,4.425Z" transform="translate(-94.647 -280.349)" fill="#027dba"/>
      <path id="Tracé_7" data-name="Tracé 7" d="M192.526,87.867a10.449,10.449,0,1,1-20.9,0Z" transform="translate(-110.816 -74.355)" fill="#d37e02"/>
      <circle id="Ellipse_2" data-name="Ellipse 2" cx="10.449" cy="10.449" r="10.449" transform="translate(63.241 3.063)" fill="#f9dca2"/>
      <path id="Tracé_8" data-name="Tracé 8" d="M192.285,30.363A10.452,10.452,0,0,1,200.3,20.2a10.45,10.45,0,1,0,0,20.325A10.452,10.452,0,0,1,192.285,30.363Z" transform="translate(-124.185 -16.851)" fill="#e5c691"/>
      <g id="Groupe_2" data-name="Groupe 2" transform="translate(70.923 12.297)">
        <path id="Tracé_9" data-name="Tracé 9" d="M238.6,84.9a1.215,1.215,0,0,1-1.215-1.215v-2.5a1.215,1.215,0,1,1,2.43,0v2.5A1.215,1.215,0,0,1,238.6,84.9Z" transform="translate(-237.388 -79.966)" fill="#363d3f"/>
        <path id="Tracé_10" data-name="Tracé 10" d="M278.489,84.9a1.215,1.215,0,0,1-1.215-1.215v-2.5a1.215,1.215,0,1,1,2.43,0v2.5A1.215,1.215,0,0,1,278.489,84.9Z" transform="translate(-271.141 -79.966)" fill="#363d3f"/>
      </g>
      <g id="Groupe_3" data-name="Groupe 3" transform="translate(40.675 13.512)">
        <path id="Tracé_11" data-name="Tracé 11" d="M47.932,87.867v8.452H44.987a4.279,4.279,0,0,1-4.309-4.142,4.226,4.226,0,0,1,4.224-4.31Z" transform="translate(-40.677 -87.867)" fill="#f9dca2"/>
        <path id="Tracé_12" data-name="Tracé 12" d="M430.155,92.007a4.221,4.221,0,0,1-4.224,4.312H422.9V87.867h2.942a4.326,4.326,0,0,1,4.108,2.938A4.094,4.094,0,0,1,430.155,92.007Z" transform="translate(-364.126 -87.867)" fill="#f9dca2"/>
      </g>
      <rect id="Rectangle_1" data-name="Rectangle 1" width="2.43" height="19.255" transform="translate(72.475 23.962)" fill="#d37e02"/>
      <path id="Tracé_13" data-name="Tracé 13" d="M208.325,30.36h-20.9a10.45,10.45,0,0,1,10.449-10.451,10.557,10.557,0,0,1,2.357.266.037.037,0,0,0,.013,0A10.456,10.456,0,0,1,208.325,30.36Z" transform="translate(-124.186 -16.848)" fill="#0387d8"/>
      <path id="Tracé_14" data-name="Tracé 14" d="M200.305,20.2a10.45,10.45,0,0,0-8.02,10.163h-4.859a10.45,10.45,0,0,1,10.449-10.451,10.557,10.557,0,0,1,2.357.266.037.037,0,0,0,.013,0A.451.451,0,0,0,200.305,20.2Z" transform="translate(-124.186 -16.848)" fill="#027dba"/>
      <g id="Groupe_4" data-name="Groupe 4" transform="translate(40.675 16.437)">
        <path id="Tracé_15" data-name="Tracé 15" d="M47.932,109.826v2.592H44.987a4.279,4.279,0,0,1-4.309-4.142,4.2,4.2,0,0,1,.2-1.375l0-.01A4.333,4.333,0,0,0,45,109.826Z" transform="translate(-40.677 -106.891)" fill="#e5c691"/>
        <path id="Tracé_16" data-name="Tracé 16" d="M430.155,108.177a4.221,4.221,0,0,1-4.224,4.312H422.9V109.9h3.029a4.226,4.226,0,0,0,4.02-2.922A4.094,4.094,0,0,1,430.155,108.177Z" transform="translate(-364.126 -106.962)" fill="#e5c691"/>
      </g>
      <path id="Tracé_17" data-name="Tracé 17" d="M214.911,247.967l-8.4,8.4A4.7,4.7,0,0,1,206.5,263l-.616.614-3.308-3.355-.024.023-5.4-5.524,9.567-9.52-6.249-6.249a3.146,3.146,0,0,0-1.928-.8,1.451,1.451,0,0,0-1.025,2.478l1.839,1.839a3.863,3.863,0,0,1,0,5.462l-8.413,8.381a4.7,4.7,0,0,1,0,6.649l-.614.614-3.309-3.355-.023.023-5.4-5.524,9.567-9.52-8.674-8.674,21.019-5.462,11.4,11.405A3.863,3.863,0,0,1,214.911,247.967Z" transform="translate(-119.252 -195.563)" fill="#455256"/>
      <g id="Groupe_5" data-name="Groupe 5" transform="translate(62.343 35.537)">
        <path id="Tracé_18" data-name="Tracé 18" d="M189.934,260.259l-.023.023-5.4-5.524,9.567-9.52-4.069-4.069a3.727,3.727,0,0,1,1.7-6.242l12.4-3.222-.6-.6-21.019,5.462,8.674,8.674-9.567,9.52,5.4,5.524.023-.023,3.309,3.355.614-.614a4.707,4.707,0,0,0,.745-.97Z" transform="translate(-181.59 -231.103)" fill="#323f42"/>
        <path id="Tracé_19" data-name="Tracé 19" d="M291.1,299.266l-.024.023-5.4-5.524,9.567-9.52L288.993,278a3.146,3.146,0,0,0-1.928-.8,1.418,1.418,0,0,0-1.191.627,1.966,1.966,0,0,1,.2.171l6.249,6.249-9.567,9.52,5.4,5.524.024-.023,3.308,3.355.616-.614a4.7,4.7,0,0,0,.745-.969Z" transform="translate(-267.199 -270.11)" fill="#323f42"/>
      </g>
      <g id="Groupe_6" data-name="Groupe 6" transform="translate(62.345 53.718)">
        <path id="Tracé_20" data-name="Tracé 20" d="M192.513,355.1l-1.566,1.562a4.7,4.7,0,0,1,0,6.649l-.616.614-3.308-3.355-.024.023-5.4-5.524,5.454-5.428Z" transform="translate(-181.6 -349.59)" fill="#eb9500"/>
        <path id="Tracé_21" data-name="Tracé 21" d="M292.118,356.416a4.7,4.7,0,0,1-.016,6.633l-.614.614-3.308-3.355-.024.023-5.4-5.524,5.5-5.475,5.472,5.472Z" transform="translate(-267.201 -349.332)" fill="#eb9500"/>
      </g>
    </g>
  </g>
</svg>
