<svg xmlns="http://www.w3.org/2000/svg" width="538" height="94" viewBox="0 0 538 94">
  <g id="Groupe_7" data-name="Groupe 7" transform="translate(-176 -122)">
    <g id="favicon" transform="translate(135.326 124)">
      <circle id="Ellipse_1" data-name="Ellipse 1" cx="4.946" cy="4.946" r="4.946" transform="translate(60.621 0)" fill="#f7cf2b"/>
      <path id="Tracé_1" data-name="Tracé 1" d="M158.1,4.946a4.946,4.946,0,0,1,2.97-4.534,4.946,4.946,0,1,0,0,9.068A4.946,4.946,0,0,1,158.1,4.946Z" transform="translate(-93.529 0)" fill="#e0bc24"/>
      <path id="Tracé_2" data-name="Tracé 2" d="M116.16,92.61a4.831,4.831,0,0,1-4.831,4.92H96.614a6.2,6.2,0,0,0-6.194,6.246l.076,9.271,13.038,13.038a4.413,4.413,0,0,1,0,6.242l-9.6,9.6a5.374,5.374,0,0,1-.018,7.581l-.7.7-3.781-3.837-.028.028-6.173-6.314L94.168,129.2l-7.144-7.144a3.571,3.571,0,0,0-2.2-.911,1.66,1.66,0,0,0-1.174,2.833l2.1,2.1a4.413,4.413,0,0,1,0,6.242l-9.618,9.582a5.371,5.371,0,0,1,0,7.6l-.7.7-3.781-3.837-.028.028-6.171-6.314L76.385,129.2l-9.914-9.914V103.724a6.2,6.2,0,0,0-6.2-6.194H45.617a4.9,4.9,0,0,1-4.938-4.748,4.834,4.834,0,0,1,4.829-4.914h65.711A4.9,4.9,0,0,1,116.16,92.61Z" transform="translate(-0.004 -72.422)" fill="#eb9500"/>
      <g id="Groupe_1" data-name="Groupe 1" transform="translate(40.674 18.789)">
        <path id="Tracé_3" data-name="Tracé 3" d="M66.466,119.4a6.2,6.2,0,0,0-6.2-6.194H45.613a4.9,4.9,0,0,1-4.938-4.748,4.784,4.784,0,0,1,.235-1.57,4.953,4.953,0,0,0,4.7,3.355H60.271a6.2,6.2,0,0,1,6.2,6.194V119.4Z" transform="translate(-40.674 -106.89)" fill="#d37e02"/>
        <path id="Tracé_4" data-name="Tracé 4" d="M349.386,108.349a4.831,4.831,0,0,1-4.831,4.92H329.84a6.192,6.192,0,0,0-6.173,5.7l-.02-2.42a6.2,6.2,0,0,1,6.194-6.246h14.715a4.829,4.829,0,0,0,4.6-3.342A4.685,4.685,0,0,1,349.386,108.349Z" transform="translate(-273.905 -106.951)" fill="#d37e02"/>
      </g>
      <path id="Tracé_5" data-name="Tracé 5" d="M129.144,345.182a9.052,9.052,0,0,1-11.513,8.71l-54.883-15.55a9.046,9.046,0,0,1,4.933-17.407l5.424,1.537,11.354,3.218,17.865,5.059,5.74,1.626,14.5,4.109A9.051,9.051,0,0,1,129.144,345.182Z" transform="translate(-12.77 -264.236)" fill="#0387d8"/>
      <path id="Tracé_6" data-name="Tracé 6" d="M185.4,350.846l-7.464-7.649-10.319,7.649L152.52,331.293l11.354,3.218,17.865,5.059Z" transform="translate(-92.186 -273.058)" fill="#027dba"/>
      <path id="Tracé_7" data-name="Tracé 7" d="M195.517,87.867a11.945,11.945,0,0,1-23.89,0Z" transform="translate(-107.934 -72.422)" fill="#d37e02"/>
      <circle id="Ellipse_2" data-name="Ellipse 2" cx="11.945" cy="11.945" r="11.945" transform="translate(66.471 3.501)" fill="#f9dca2"/>
      <path id="Tracé_8" data-name="Tracé 8" d="M192.98,31.858a11.947,11.947,0,0,1,9.168-11.617,11.945,11.945,0,1,0,0,23.234A11.948,11.948,0,0,1,192.98,31.858Z" transform="translate(-120.955 -16.413)" fill="#e5c691"/>
      <g id="Groupe_2" data-name="Groupe 2" transform="translate(75.253 14.057)">
        <path id="Tracé_9" data-name="Tracé 9" d="M238.777,85.6a1.389,1.389,0,0,1-1.389-1.389V81.355a1.389,1.389,0,0,1,2.777,0v2.857A1.389,1.389,0,0,1,238.777,85.6Z" transform="translate(-237.388 -79.966)" fill="#363d3f"/>
        <path id="Tracé_10" data-name="Tracé 10" d="M278.663,85.6a1.389,1.389,0,0,1-1.389-1.389V81.355a1.389,1.389,0,1,1,2.777,0v2.857A1.389,1.389,0,0,1,278.663,85.6Z" transform="translate(-270.263 -79.966)" fill="#363d3f"/>
      </g>
      <g id="Groupe_3" data-name="Groupe 3" transform="translate(40.675 15.445)">
        <path id="Tracé_11" data-name="Tracé 11" d="M48.97,87.867v9.662H45.6a4.891,4.891,0,0,1-4.925-4.735,4.831,4.831,0,0,1,4.829-4.927Z" transform="translate(-40.677 -87.867)" fill="#f9dca2"/>
        <path id="Tracé_12" data-name="Tracé 12" d="M431.194,92.6a4.825,4.825,0,0,1-4.829,4.929H422.9V87.867h3.363a4.945,4.945,0,0,1,4.7,3.359A4.679,4.679,0,0,1,431.194,92.6Z" transform="translate(-355.714 -87.867)" fill="#f9dca2"/>
      </g>
      <rect id="Rectangle_1" data-name="Rectangle 1" width="2.778" height="22.01" transform="translate(77.027 27.391)" fill="#d37e02"/>
      <path id="Tracé_13" data-name="Tracé 13" d="M211.316,31.856h-23.89a11.946,11.946,0,0,1,11.945-11.947,12.068,12.068,0,0,1,2.694.3.042.042,0,0,0,.015,0A11.953,11.953,0,0,1,211.316,31.856Z" transform="translate(-120.956 -16.409)" fill="#0387d8"/>
      <path id="Tracé_14" data-name="Tracé 14" d="M202.148,20.239a11.946,11.946,0,0,0-9.168,11.617h-5.555a11.946,11.946,0,0,1,11.945-11.947,12.068,12.068,0,0,1,2.694.3.042.042,0,0,0,.015,0A.515.515,0,0,0,202.148,20.239Z" transform="translate(-120.956 -16.409)" fill="#027dba"/>
      <g id="Groupe_4" data-name="Groupe 4" transform="translate(40.675 18.789)">
        <path id="Tracé_15" data-name="Tracé 15" d="M48.97,110.246v2.963H45.6a4.891,4.891,0,0,1-4.925-4.735,4.8,4.8,0,0,1,.23-1.572l.006-.011a4.953,4.953,0,0,0,4.7,3.355Z" transform="translate(-40.677 -106.891)" fill="#e5c691"/>
        <path id="Tracé_16" data-name="Tracé 16" d="M431.194,108.349a4.825,4.825,0,0,1-4.829,4.929H422.9v-2.963h3.463a4.831,4.831,0,0,0,4.6-3.34A4.679,4.679,0,0,1,431.194,108.349Z" transform="translate(-355.714 -106.96)" fill="#e5c691"/>
      </g>
      <path id="Tracé_17" data-name="Tracé 17" d="M219.679,250.381l-9.6,9.6a5.374,5.374,0,0,1-.017,7.582l-.7.7-3.781-3.835-.028.026-6.172-6.314,10.936-10.882-7.144-7.144a3.6,3.6,0,0,0-2.2-.913,1.659,1.659,0,0,0-1.172,2.833l2.1,2.1a4.416,4.416,0,0,1,0,6.244l-9.618,9.58a5.376,5.376,0,0,1,0,7.6l-.7.7L187.8,264.43l-.026.026-6.173-6.314,10.936-10.882-9.916-9.916,24.027-6.244,13.036,13.038A4.416,4.416,0,0,1,219.679,250.381Z" transform="translate(-116.151 -190.477)" fill="#455256"/>
      <g id="Groupe_5" data-name="Groupe 5" transform="translate(65.444 40.624)">
        <path id="Tracé_18" data-name="Tracé 18" d="M191.128,264.432l-.026.026-6.173-6.314,10.936-10.882-4.652-4.652a4.26,4.26,0,0,1,1.941-7.136l14.172-3.683-.689-.689-24.027,6.244,9.916,9.916L181.59,258.144l6.173,6.314.026-.026,3.783,3.835.7-.7a5.378,5.378,0,0,0,.851-1.108Z" transform="translate(-181.59 -231.103)" fill="#323f42"/>
        <path id="Tracé_19" data-name="Tracé 19" d="M292.293,302.425l-.028.026-6.171-6.314,10.936-10.882-7.144-7.144a3.6,3.6,0,0,0-2.2-.913,1.621,1.621,0,0,0-1.362.717,2.25,2.25,0,0,1,.226.2l7.144,7.144-10.936,10.882,6.172,6.314.028-.026,3.781,3.835.7-.7a5.376,5.376,0,0,0,.851-1.108Z" transform="translate(-264.972 -269.095)" fill="#323f42"/>
      </g>
      <g id="Groupe_6" data-name="Groupe 6" transform="translate(65.446 61.406)">
        <path id="Tracé_20" data-name="Tracé 20" d="M194.074,355.877l-1.79,1.785a5.377,5.377,0,0,1,0,7.6l-.7.7L187.8,362.13l-.028.026-6.171-6.314,6.234-6.2Z" transform="translate(-181.6 -349.583)" fill="#eb9500"/>
        <path id="Tracé_21" data-name="Tracé 21" d="M293.458,357.429a5.373,5.373,0,0,1-.018,7.583l-.7.7-3.781-3.835-.028.026-6.173-6.314,6.29-6.258,6.255,6.255Z" transform="translate(-264.975 -349.332)" fill="#eb9500"/>
      </g>
    </g>
    <text id="SnowTricks" transform="translate(272 197)" fill="#111827" font-size="80" font-family="Raleway-ExtraBold, Raleway" font-weight="800"><tspan x="0" y="0">SnowTricks</tspan></text>
  </g>
</svg>
